<svg xmlns="http://www.w3.org/2000/svg" class="o-aQ o-aS o-aV o-ov bgqw_0" viewBox="0 0 70 26" width="85.3px" height="48px" crestColor="rgba(255, 255, 255, 0.7)" textColor="rgba(255, 255, 255, 0.7)" tabindex="-1" focusable="false" aria-hidden="true" role="img" style="height: auto; opacity: 0.7;"><path fill="#fff" d="M7,5.08A9,9,0,0,1,1.54,3.6H12.48A9.06,9.06,0,0,1,7,5.08ZM1.54,12.76H12.48A9.06,9.06,0,0,0,7,11.28,9,9,0,0,0,1.54,12.76ZM11.2,8.18a14.11,14.11,0,0,1-.33,3.15c1.47.51,2.45,1,2.87,1.11s.56,0,.83-.59a9.17,9.17,0,0,0,.63-3.67,9.17,9.17,0,0,0-.63-3.67c-.27-.59-.52-.64-.83-.59s-1.4.6-2.87,1.11A14.11,14.11,0,0,1,11.2,8.18ZM1.31,12c.09,0,1-.42,1.8-.74A14.14,14.14,0,0,1,2.8,8.18a14.14,14.14,0,0,1,.31-3c-.75-.32-1.71-.73-1.8-.74-.28,0-.51,0-.75.52A8.34,8.34,0,0,0,0,8.18a8.34,8.34,0,0,0,.56,3.27C.8,12,1,12,1.31,12ZM36.94,8.05a2.06,2.06,0,0,1,.48-1.51,1.89,1.89,0,0,1,1.31-.48l-.64-2.33-.55.13A4.21,4.21,0,0,0,36,4.61a3.75,3.75,0,0,0-1.08,1.46,5.56,5.56,0,0,0-.4,2.25v4.43h2.41Zm-9.55,4.06A2.44,2.44,0,0,1,26.5,10a2.31,2.31,0,0,1,.81-2,4.72,4.72,0,0,1,2.07-.79,2.08,2.08,0,0,0,.39,0c.16,0,.33-.06.53-.08,1-.14,1.46-.42,1.46-.86a.63.63,0,0,0-.51-.65,3.45,3.45,0,0,0-.95-.15,2.56,2.56,0,0,0-.82.13A.9.9,0,0,0,29,6H26.73a2.56,2.56,0,0,1,.92-1.69,3.82,3.82,0,0,1,2.55-.76A5,5,0,0,1,33,4.22a2.15,2.15,0,0,1,1,1.85v3a3.76,3.76,0,0,1-.49,2.06,2.92,2.92,0,0,1-1.14,1.08,4.19,4.19,0,0,1-1.47.45c-.52.05-1,.08-1.37.08A3.48,3.48,0,0,1,27.39,12.11Zm1.26-2.2a1.09,1.09,0,0,0,.3.8,1.26,1.26,0,0,0,.86.26,1.83,1.83,0,0,0,2-2V8.16a6.42,6.42,0,0,1-1.29.43l-.76.16a2,2,0,0,0-.86.43A1.33,1.33,0,0,0,28.65,9.91Zm13.46,2.84h1.57L45,6.41l1.31,6.34h2.41l2.51-9.13H49.72a1,1,0,0,0-1.1.82l-1.27,5.5L46.11,3.62H44.78a1,1,0,0,0-1.1.82l-1.13,5.5L41.11,3.62H38.77l2.51,9.13ZM53.52,6H51.31a2.52,2.52,0,0,1,.92-1.69,3.82,3.82,0,0,1,2.55-.76,5,5,0,0,1,2.78.63,2.12,2.12,0,0,1,1,1.85v3A3.76,3.76,0,0,1,58,11.15a2.92,2.92,0,0,1-1.14,1.08,4.19,4.19,0,0,1-1.47.45c-.52.05-1,.08-1.38.08A3.45,3.45,0,0,1,52,12.11a2.44,2.44,0,0,1-.9-2.13,2.31,2.31,0,0,1,.81-2A4.72,4.72,0,0,1,54,7.2a2.17,2.17,0,0,0,.4,0c.16,0,.33-.06.53-.08,1-.14,1.46-.42,1.46-.86a.63.63,0,0,0-.51-.65,3.45,3.45,0,0,0-.95-.15,2.68,2.68,0,0,0-.83.13A.93.93,0,0,0,53.52,6Zm2.85,2.12a6.42,6.42,0,0,1-1.29.43l-.76.16a2,2,0,0,0-.86.43,1.33,1.33,0,0,0-.23.73,1.12,1.12,0,0,0,.29.8,1.3,1.3,0,0,0,.86.26,1.94,1.94,0,0,0,1.46-.53A2,2,0,0,0,56.37,9Zm4.92-5.71A1,1,0,0,0,61,1.68a1.12,1.12,0,0,0-.79-.32h-1V12.75h2.16ZM63,11.53a4.93,4.93,0,0,1-1.06-3.4,4.91,4.91,0,0,1,1-3.31,3.69,3.69,0,0,1,3-1.23,4,4,0,0,1,3.08,1.19A5,5,0,0,1,70,8.19v.37a.63.63,0,0,1,0,.23H64.24a2.26,2.26,0,0,0,.5,1.52,1.56,1.56,0,0,0,1.29.53,2,2,0,0,0,1-.23.47.47,0,0,0,.18-.12c0-.05.12-.11.18-.18s.11-.15.25-.27a1.05,1.05,0,0,1,.61-.16h1.66A3.67,3.67,0,0,1,68.48,12a4.22,4.22,0,0,1-2.58.76A3.68,3.68,0,0,1,63,11.53ZM64.24,7.3h3.38A2.17,2.17,0,0,0,67.15,6a1.56,1.56,0,0,0-1.22-.46A1.58,1.58,0,0,0,64.74,6,1.89,1.89,0,0,0,64.24,7.3ZM23.64,10a1.66,1.66,0,0,0-.27.27l-.18.18a.47.47,0,0,1-.18.12,2,2,0,0,1-1,.23,1.56,1.56,0,0,1-1.29-.53,3.09,3.09,0,0,1-.6-2.15A3.24,3.24,0,0,1,20.76,6a1.81,1.81,0,0,1,2.41,0l.06.07h2.45A4.63,4.63,0,0,0,25,4.78a4,4,0,0,0-3.08-1.19,3.66,3.66,0,0,0-2.94,1.23,4.86,4.86,0,0,0-1,3.31A4.93,4.93,0,0,0,19,11.53a3.67,3.67,0,0,0,2.94,1.23A4.23,4.23,0,0,0,24.5,12a3.67,3.67,0,0,0,1.39-2.12H24.23A1,1,0,0,0,23.64,10Z M65.8,19.54a1,1,0,0,0-.91.55h1.83A1.06,1.06,0,0,0,65.8,19.54Z M34.56,15.48l2.58,9.16H70V15.48Zm9.89,7.27h-1.4v-.38h0l-.09.05a3.35,3.35,0,0,1-.53.19,2.91,2.91,0,0,1-.6.06,2.54,2.54,0,0,1-1.46-.44,2.88,2.88,0,0,1-1-1.14,3.13,3.13,0,0,1-.16-.52,2.35,2.35,0,0,1-.06-.54,2.51,2.51,0,0,1,.06-.55,3.33,3.33,0,0,1,.16-.51,2.78,2.78,0,0,1,1-1.15,2.53,2.53,0,0,1,1.46-.43h.3a2.51,2.51,0,0,1,.93.28h0v-.3h1.4Zm3.55,0a2.14,2.14,0,0,1-1.35-.48h0v.46h-1.4V17.38h1.4v1.49A2.19,2.19,0,0,1,48,18.4a2.15,2.15,0,0,1,1.53.63L48,20.51l-.67-.71-.83.8.14.14L47.79,22,50,19.79a2.25,2.25,0,0,1,.14.78A2.18,2.18,0,0,1,48,22.75Zm6-.17a3.13,3.13,0,0,1-1,.17,2.54,2.54,0,0,1-1.47-.42,1.63,1.63,0,0,1-.68-.91,1.93,1.93,0,0,1-.06-.51h1.25s0,.06,0,.07c.15.56.92.57.92.57.57,0,.73-.19.76-.32a.31.31,0,0,0,0-.19c-.09-.18-.46-.28-1.07-.42a4.32,4.32,0,0,1-1.33-.47A1.31,1.31,0,0,1,50.79,19a1.52,1.52,0,0,1,1.06-1.48,3.34,3.34,0,0,1,1.09-.19,2.08,2.08,0,0,1,1.63.61A1.49,1.49,0,0,1,55,19H53.67v0s0,0,0-.09v0a.5.5,0,0,0-.18-.17,1,1,0,0,0-.52-.12s-.7,0-.7.35h0c0,.22.26.37.78.47a4.69,4.69,0,0,1,1.42.5,1.32,1.32,0,0,1,.74,1.22A1.51,1.51,0,0,1,54,22.58Zm5.78-4.17v4.34H58.41v-.51a2,2,0,0,1-1.53.51,1,1,0,0,1-1-.77,2.18,2.18,0,0,1-.05-.42V18.41h1.41v2.73a.57.57,0,0,0,.63.58c.22,0,.57-.2.57-.5V18.41h1.41Zm3.42,1.52h-.19C62.58,19.93,62,20,62,21v1.74H60.59V18.41H62v0h0v.62a.81.81,0,0,1,.74-.63h.54ZM67.94,21H64.87a.93.93,0,0,0,.89.64,1,1,0,0,0,.85-.33h1.25a2.9,2.9,0,0,1-.24.44h0a2.18,2.18,0,0,1-1.8.95,2.28,2.28,0,0,1-1-.23,2.17,2.17,0,0,1,.37-4l.18,0a2.12,2.12,0,0,1,.44-.05h0A2.18,2.18,0,0,1,68,20.58,2.31,2.31,0,0,1,67.94,21Z M42.67,19.17a1.56,1.56,0,0,0-.4-.27,1.22,1.22,0,0,0-.46-.09,1.18,1.18,0,0,0-.46.09,1.36,1.36,0,0,0-.39.27,1.41,1.41,0,0,0-.27.4,1.18,1.18,0,0,0-.09.46,1.07,1.07,0,0,0,.1.47,1.36,1.36,0,0,0,.27.39,1.27,1.27,0,0,0,.39.26,1,1,0,0,0,.45.1,1.23,1.23,0,0,0,.47-.09,1.2,1.2,0,0,0,.65-.65A1.09,1.09,0,0,0,43,20a1,1,0,0,0-.1-.46A1.2,1.2,0,0,0,42.67,19.17Z"/></svg>