<svg xmlns="http://www.w3.org/2000/svg" class="o-aQ o-aS o-aV o-ov o9kUuU o-eE" viewBox="0 0 141 79" width="147px" height="63px" crestColor="rgba(255, 255, 255, 0.7)" textColor="rgba(255, 255, 255, 0.7)" tabindex="-1" focusable="false" aria-hidden="true" role="img" style="opacity: 0.9;"><path fill="#fff" d="M8.6,28.82c-2.29,0-3.68,1.87-3.68,5s1.31,4.92,3.58,4.92c1.81,0,2.97-1.03,3.13-2.84h2.84c-.18,3.26-2.52,5.28-6.05,5.28-3.94,0-6.41-2.87-6.41-7.41s2.5-7.47,6.49-7.47c3.31,0,5.68,1.84,5.92,5.05h-2.76c-.16-.68-.6-2.52-3.05-2.52M15.09,38.1c0-1.89,1.03-2.97,3.1-3.31l1.08-.18c.89-.13,2.18-.18,2.18-1.24,0-.71-.53-1.05-1.58-1.05-1.34,0-1.79.34-1.92,1.45h-2.63c.18-2.45,1.66-3.65,4.5-3.65s4.31,1.08,4.31,3.23v5.84c0,.55.13.84.63,1.29v.34h-2.97c-.26-.32-.32-.5-.32-1.05-.95,1-2.02,1.5-3.18,1.5-1.92,0-3.21-1.26-3.21-3.15M21.46,35.84c-.32.16-.42.18-1.16.34l-.95.18c-1.13.24-1.55.63-1.55,1.45s.55,1.26,1.47,1.26c1.39,0,2.16-.89,2.16-2.47v-.76h.03ZM28.16,30.26v2.08c.58-1.42,1.68-2.23,2.92-2.23.08,0,.53.03.68.05,0,0-.16.42-.26,1.16-.11.63-.08,1.58-.08,1.58-.37-.05-.55-.08-.87-.08-1.6,0-2.39.79-2.39,2.39v5.6h-2.73v-10.52h2.73v-.03ZM58.87,30.21c-.16-.03-.26-.03-.34-.03-1.24,0-2.34.82-2.92,2.23v-2.08h-2.73v10.52h2.76v-5.55c0-1.6.79-2.39,2.39-2.39.29,0,.5.03.87.08v-2.79h-.03ZM68.04,33.42c0-2.13-1.47-3.23-4.31-3.23-2.52,0-3.97.97-4.39,2.89.47.08,1.45.24,2.55.6.16-.97.63-1.29,1.89-1.29,1.05,0,1.58.34,1.58,1.05,0,1.03-1.29,1.08-2.18,1.24l-1.1.18c-2.08.34-3.1,1.42-3.1,3.31s1.29,3.15,3.18,3.15c1.16,0,2.23-.5,3.18-1.5,0,.55.05.74.32,1.05h2.97v-.34c-.47-.45-.63-.74-.63-1.29v-5.84h.05ZM65.39,36.65c0,1.58-.79,2.47-2.16,2.47-.92,0-1.47-.5-1.47-1.26,0-.82.42-1.21,1.55-1.45l.95-.18c.71-.13.84-.18,1.16-.34v.76h-.03ZM76.3,31.74c-.68-1.05-1.6-1.55-2.89-1.55-2.52,0-4.42,2.42-4.42,5.6s1.76,5.55,4.42,5.55c1.31,0,2.21-.5,2.89-1.52v1.08h2.73v-14.2h-2.73v5.05ZM73.98,39.07c-1.37,0-2.29-1.34-2.29-3.26s.95-3.31,2.29-3.31,2.29,1.34,2.29,3.34c.03,1.89-.92,3.23-2.29,3.23M89.76,36.02c0-4.65-2.81-5.81-4.92-5.81-3.02,0-4.86,2.18-4.86,5.71s1.84,5.44,4.81,5.44c2.37,0,4.26-1.34,4.86-3.42h-2.68c-.34.84-1.1,1.31-2.08,1.31-1.84,0-2.13-1.34-2.18-2.76h7.05c0-.24,0-.34,0-.47M82.71,34.68c.18-1.6.87-2.39,2.08-2.39s2,.87,2.13,2.39h-4.21ZM107,32.92c-1.08,0-1.68.71-1.81,2.13h3.71c-.11-1.37-.76-2.13-1.89-2.13ZM91.02,26.14v16.35h40.36l7.62-16.35h-47.98ZM99.22,40.54h-2.58v-10.41h-3.81v-2.16h10.07v2.16h-3.68v10.41ZM111.37,36.65h-6.23c.05,1.26.32,2.45,1.92,2.45.87,0,1.55-.42,1.84-1.18h2.39c-.53,1.84-2.23,3.02-4.31,3.02-2.63,0-4.26-1.81-4.26-4.81s1.63-5.05,4.31-5.05c1.87,0,4.36,1.03,4.36,5.15,0,.13,0,.21-.03.42ZM116.47,38.99c.92,0,1.42-.47,1.74-1.68h2.31c-.24,2.23-1.79,3.63-4.05,3.63-2.76,0-4.36-1.79-4.36-4.86s1.63-5,4.39-5c2.31,0,3.84,1.37,4.02,3.63h-2.31c-.29-1.24-.74-1.68-1.74-1.68-1.66,0-1.97,1.76-1.97,3.05,0,1.81.74,2.92,1.97,2.92ZM129.8,40.54h-2.39v-5.68c0-1.03-.37-1.74-1.5-1.74s-1.87.76-1.87,1.81v5.6h-2.42v-12.57h2.42v4.6c.68-1.03,1.52-1.5,2.73-1.5,1.31,0,3.02.63,3.02,3.23v6.23ZM42.04,22.96c-5.49,0-9.94,4.47-9.94,9.96s4.44,9.96,9.94,9.96,9.96-4.47,9.96-9.96-4.47-9.94-9.96-9.96ZM47.09,30h-3.68v10.41h-2.58v-10.41h-3.81v-2.16h10.07v2.16ZM130.82,49.52c-.12-.31-.31-.58-.56-.8s-.57-.4-.96-.52c-.39-.12-.85-.19-1.38-.19h-2.58v7.95h1.48v-2.8h1.11c.52,0,.97-.06,1.36-.19.39-.13.71-.31.97-.54.26-.23.45-.51.58-.83.13-.32.19-.67.19-1.06s-.06-.71-.18-1.02ZM129.42,51.15c-.07.18-.17.34-.3.46-.13.13-.3.22-.5.29-.2.07-.44.1-.71.1h-1.11v-2.85h1.11c.28,0,.51.03.72.1.2.06.37.16.5.28.13.12.23.27.3.44.07.17.1.36.1.58,0,.22-.03.43-.1.61ZM120.36,54.76c.29,0,.54-.05.77-.14.23-.1.42-.23.57-.4.15-.17.27-.38.35-.63.08-.25.12-.52.12-.83v-4.76h1.48v4.76c0,.47-.08.91-.23,1.31-.15.4-.37.75-.65,1.04s-.63.52-1.04.68c-.41.16-.87.24-1.38.24s-.97-.08-1.38-.24c-.41-.16-.75-.39-1.04-.68-.28-.29-.5-.64-.65-1.04s-.23-.84-.23-1.31v-4.76h1.48v4.76c0,.3.04.58.12.83.08.25.2.46.36.63.16.17.35.31.57.4.23.1.48.14.77.14ZM105.52,53.02c-.07-.1-.14-.19-.22-.27-.08-.08-.17-.14-.26-.2.28-.08.53-.2.75-.35s.4-.32.55-.51.26-.41.34-.65c.08-.24.12-.49.12-.76,0-.34-.06-.65-.18-.93-.12-.28-.3-.52-.55-.72-.25-.2-.56-.36-.95-.47s-.85-.17-1.39-.17h-2.43v7.95h1.48v-3.11h.63c.15,0,.26.02.33.06.08.04.14.11.21.2l1.67,2.55c.11.2.3.3.55.3h1.34l-1.99-2.94ZM104.44,51.68c-.21.07-.45.1-.73.1h-.92v-2.64h.95c.55,0,.95.11,1.22.32.27.22.4.53.4.93,0,.2-.03.39-.1.56-.07.17-.17.31-.3.44-.13.12-.3.22-.51.29ZM99.88,51.97v3.22c-.4.3-.83.51-1.29.65-.46.14-.95.21-1.47.21-.65,0-1.24-.1-1.76-.3-.53-.2-.98-.48-1.35-.84-.37-.36-.66-.79-.86-1.29-.2-.5-.3-1.04-.3-1.63s.1-1.15.29-1.64c.19-.5.47-.93.83-1.29.36-.36.79-.64,1.3-.84.51-.2,1.08-.3,1.72-.3.32,0,.62.03.9.08.28.05.54.12.78.21.24.09.46.2.66.33.2.13.38.27.54.42l-.42.67c-.07.11-.15.17-.26.2-.11.02-.22,0-.35-.08-.12-.07-.24-.14-.36-.21-.12-.07-.26-.13-.4-.18-.15-.05-.32-.09-.5-.13-.19-.03-.4-.05-.64-.05-.39,0-.75.07-1.06.2-.32.13-.59.32-.81.57-.22.25-.4.54-.52.89-.12.34-.18.73-.18,1.15,0,.45.07.86.2,1.22.13.36.31.66.55.91.24.25.52.44.86.57.33.13.71.2,1.12.2.29,0,.56-.03.79-.09.23-.06.46-.15.68-.25v-1.44h-1c-.1,0-.17-.03-.22-.08-.05-.05-.08-.12-.08-.2v-.84h2.64ZM115.72,50.87c-.09-.35-.21-.68-.38-.98-.16-.3-.37-.57-.6-.82s-.5-.45-.8-.62c-.3-.17-.62-.3-.98-.4-.36-.09-.74-.14-1.14-.14-.6,0-1.15.1-1.64.31s-.92.49-1.27.85c-.35.36-.63.79-.82,1.29-.19.5-.29,1.04-.29,1.62s.1,1.12.29,1.62c.19.5.47.93.82,1.29.35.36.78.65,1.27.85s1.04.31,1.64.31,1.15-.1,1.65-.31.92-.49,1.27-.85c.35-.36.62-.79.82-1.29.19-.5.29-1.04.29-1.62,0-.39-.04-.76-.13-1.11ZM114.16,53.15c-.12.35-.28.64-.5.88-.22.24-.48.42-.79.55-.31.13-.66.19-1.05.19s-.74-.06-1.05-.19c-.31-.13-.57-.31-.79-.55-.22-.24-.39-.53-.5-.88-.12-.35-.18-.74-.18-1.17s.06-.83.18-1.17c.12-.35.29-.64.5-.88s.48-.43.79-.56c.31-.13.66-.19,1.05-.19s.74.06,1.05.19c.31.13.57.31.79.56.22.24.38.54.5.88.12.35.18.74.18,1.17s-.06.83-.18,1.17Z" fill-rule="evenodd" stroke-width="0"/></svg>