<svg xmlns="http://www.w3.org/2000/svg" class="o-aQ o-aS o-aV o-ov bgqw_0" viewBox="0 0 1922 468" width="85.3px" height="48px" tabindex="-1" focusable="false" aria-hidden="true" role="img"><path fill="rgba(255, 255, 255, 0.7)" d="M778 2.7V200h-37.8v-99.9l-61.8 74.2-61.5-74.2V200H579V2.7h2.4l96.9 113.9L775.5 2.7h2.5zM1194.4 57.4c0 4-.8 8.2-2.4 12.7-1.6 4.5-3.8 8.7-6.6 12.5-2.8 3.8-6.2 7-10.1 9.6-4 2.6-8.3 4-13 4.2 4.9.4 9.7 1.8 14.4 4.2 4.8 2.4 9 5.7 12.8 9.8 3.8 4.1 6.9 8.9 9.3 14.3 2.4 5.4 3.6 11.1 3.6 17.2 0 10.8-1.6 19.9-4.9 27.3-3.2 7.4-7.7 13.5-13.2 18-5.6 4.6-12.1 7.9-19.6 9.8s-15.4 3-23.9 3h-91.2V2.5h86.9c7.9 0 15.4.8 22.4 2.3 7 1.5 13.1 4.3 18.4 8.4 5.2 4.1 9.4 9.7 12.4 16.8 3.2 7.1 4.7 16.2 4.7 27.4zm-106.9 25.5h46.4c3.8 0 7.1-.7 9.9-2.2 2.8-1.4 5.1-3.3 7-5.7 1.9-2.4 3.3-5 4.3-8s1.5-5.9 1.5-8.8c0-2.9-.5-5.7-1.6-8.4s-2.5-5.1-4.3-7.1c-1.8-2-3.9-3.6-6.3-4.9-2.4-1.3-5-1.9-7.7-1.9h-49.1v47zm53.5 83.7c3.2 0 6.3-.8 9.2-2.3 2.9-1.5 5.4-3.6 7.6-6.2 2.2-2.6 3.9-5.5 5.1-8.6 1.3-3.1 1.9-6.3 1.9-9.6 0-6.7-2.5-12.2-7.4-16.7-5-4.5-11.7-6.7-20.4-6.7h-49.4v50.2h53.4zM1280.5 200h-37.8V2.7h37.8V200zM1471.3 166.6V200h-142.2V2.5h37.8v164.1h104.4zM1538.2 200h-37.8V2.7h37.8V200zM1717.7 35.9h-56.4V200h-37.8V35.9h-56.7V2.5h150.9v33.4zM1921 2.7c-5 8.3-10.8 17.7-17.4 28.3-6.6 10.6-13.3 21.5-20.1 32.5-6.8 11.1-13.6 22-20.2 32.7-6.7 10.7-12.5 20.4-17.5 29V200H1808v-74.8c-11.7-20.5-24.1-40.9-37.2-61.3s-25.6-40.8-37.5-61.3h44c8.1 13.5 16.4 27.4 24.8 41.8 8.5 14.4 16.7 28.3 24.8 41.8 4-6.3 8.1-13 12.4-20.2 4.3-7.2 8.6-14.4 13-21.7 4.3-7.3 8.6-14.5 12.8-21.6 4.2-7.1 8.2-13.8 12-20.1h43.9zM677.8 465.8c-13.5 0-26.3-2.6-38.3-7.8-12-5.2-22.5-12.3-31.4-21.2-8.9-8.9-16-19.4-21.2-31.4-5.2-12-7.8-24.8-7.8-38.6 0-13.5 2.6-26.4 7.8-38.4s12.3-22.6 21.2-31.5c8.9-8.9 19.4-16 31.4-21.2 12-5.2 24.8-7.8 38.3-7.8 13.7 0 26.6 2.6 38.6 7.8 12 5.2 22.5 12.3 31.4 21.2 8.9 8.9 16 19.5 21.2 31.5s7.8 24.9 7.8 38.4c0 13.7-2.6 26.6-7.8 38.6-5.2 12-12.3 22.5-21.2 31.4-8.9 8.9-19.4 16-31.4 21.2-12 5.2-24.9 7.8-38.6 7.8zm.1-163.9c-8.7 0-16.8 1.8-24.3 5.3-7.5 3.6-14.1 8.3-19.8 14.2-5.6 5.9-10.1 12.8-13.4 20.7s-4.9 16.1-4.9 24.6c0 8.7 1.6 16.9 4.9 24.8 3.3 7.8 7.8 14.7 13.4 20.7 5.6 6 12.2 10.8 19.8 14.3 7.5 3.6 15.6 5.3 24.3 5.3 8.7 0 16.8-1.8 24.3-5.3 7.5-3.6 14.1-8.3 19.8-14.3 5.6-6 10.1-12.9 13.4-20.7 3.3-7.8 4.9-16.1 4.9-24.8 0-8.5-1.6-16.7-4.9-24.6-3.3-7.9-7.8-14.8-13.4-20.7-5.6-5.9-12.2-10.6-19.8-14.2-7.5-3.5-15.6-5.3-24.3-5.3zM913.7 200c-13.5 0-26.3-2.6-38.3-7.8-12-5.2-22.5-12.3-31.4-21.2-8.9-8.9-16-19.4-21.2-31.4-5.2-12-7.8-24.8-7.8-38.6 0-13.5 2.6-26.4 7.8-38.4S835.1 40 844 31.1c8.9-8.9 19.4-16 31.4-21.2 12-5.2 24.8-7.8 38.3-7.8 13.7 0 26.6 2.6 38.6 7.8 12 5.2 22.5 12.3 31.4 21.2 8.9 8.9 16 19.5 21.2 31.5s7.8 24.9 7.8 38.4c0 13.7-2.6 26.6-7.8 38.6-5.2 12-12.3 22.5-21.2 31.4-8.9 8.9-19.4 16-31.4 21.2-12 5.2-24.9 7.8-38.6 7.8zm.1-163.9c-8.7 0-16.8 1.8-24.3 5.3-7.5 3.6-14.1 8.3-19.8 14.2-5.6 5.9-10.1 12.8-13.4 20.7-3.3 7.9-4.9 16.1-4.9 24.6 0 8.7 1.6 16.9 4.9 24.8 3.3 7.8 7.8 14.7 13.4 20.7 5.6 6 12.2 10.8 19.8 14.3 7.5 3.6 15.6 5.3 24.3 5.3 8.7 0 16.8-1.8 24.3-5.3 7.5-3.6 14.1-8.3 19.8-14.3 5.6-6 10.1-12.9 13.4-20.7 3.3-7.8 4.9-16.1 4.9-24.8 0-8.5-1.6-16.7-4.9-24.6-3.3-7.9-7.8-14.8-13.4-20.7-5.6-5.9-12.2-10.6-19.8-14.2-7.5-3.5-15.6-5.3-24.3-5.3zM890.9 465.8c-12.3 0-23.5-1.9-33.6-5.7-10.1-3.8-18.7-9.2-25.8-16.2-7.1-6.9-12.6-15.4-16.5-25.3-3.9-9.9-5.9-20.9-5.9-33.1V269.7h36.5v115.6c0 9.5 1.6 17.4 4.7 23.7 3.1 6.2 7 11.2 11.6 14.8 4.6 3.6 9.6 6.2 14.9 7.5 5.3 1.4 10 2.1 14.2 2.1 4.2 0 8.9-.7 14.2-2.1 5.3-1.4 10.2-3.9 14.9-7.5 4.6-3.6 8.5-8.6 11.6-14.8 3.1-6.2 4.7-14.1 4.7-23.7V269.7h36.5v115.8c0 12.2-1.9 23.2-5.7 33.1-3.8 9.9-9.3 18.3-16.4 25.3-7.1 7-15.7 12.3-25.8 16.2-10.3 3.8-21.5 5.7-34.1 5.7zM1140.8 302.2h-54.5v163.6h-36.5V302.2h-54.7v-32.3h145.7v32.3zM1303.2 433.5v32.3h-137.3V269.9h36.5v163.6h100.8zM1404.5 465.8c-13.5 0-26.3-2.6-38.3-7.8-12-5.2-22.5-12.3-31.4-21.2-8.9-8.9-16-19.4-21.2-31.4-5.2-12-7.8-24.8-7.8-38.6 0-13.5 2.6-26.4 7.8-38.4 5.2-12.1 12.3-22.6 21.2-31.5 8.9-8.9 19.4-16 31.4-21.2 12-5.2 24.8-7.8 38.3-7.8 13.7 0 26.6 2.6 38.6 7.8 12 5.2 22.5 12.3 31.4 21.2 8.9 8.9 16 19.5 21.2 31.5s7.8 24.9 7.8 38.4c0 13.7-2.6 26.6-7.8 38.6-5.2 12-12.3 22.5-21.2 31.4-8.9 8.9-19.4 16-31.4 21.2-12 5.2-24.8 7.8-38.6 7.8zm.2-163.9c-8.7 0-16.8 1.8-24.3 5.3-7.5 3.6-14.1 8.3-19.8 14.2-5.6 5.9-10.1 12.8-13.4 20.7s-4.9 16.1-4.9 24.6c0 8.7 1.6 16.9 4.9 24.8 3.3 7.8 7.8 14.7 13.4 20.7 5.6 6 12.2 10.8 19.8 14.3 7.5 3.6 15.6 5.3 24.3 5.3 8.7 0 16.8-1.8 24.3-5.3 7.5-3.6 14.1-8.3 19.8-14.3 5.6-6 10.1-12.9 13.4-20.7 3.3-7.8 4.9-16.1 4.9-24.8 0-8.5-1.6-16.7-4.9-24.6-3.3-7.9-7.8-14.8-13.4-20.7-5.6-5.9-12.2-10.6-19.8-14.2-7.6-3.5-15.7-5.3-24.3-5.3zM1625 465.8c-13.5 0-26.3-2.6-38.3-7.8-12-5.2-22.5-12.3-31.4-21.2-8.9-8.9-16-19.4-21.2-31.4-5.2-12-7.8-24.8-7.8-38.6 0-13.5 2.6-26.4 7.8-38.4 5.2-12.1 12.3-22.6 21.2-31.5 8.9-8.9 19.4-16 31.4-21.2 12-5.2 24.8-7.8 38.3-7.8 13.7 0 26.6 2.6 38.6 7.8 12 5.2 22.5 12.3 31.4 21.2 8.9 8.9 16 19.5 21.2 31.5 5.2 12.1 7.8 24.9 7.8 38.4 0 13.7-2.6 26.6-7.8 38.6-5.2 12-12.3 22.5-21.2 31.4-8.9 8.9-19.4 16-31.4 21.2-12 5.2-24.9 7.8-38.6 7.8zm.1-163.9c-8.7 0-16.8 1.8-24.3 5.3-7.5 3.6-14.1 8.3-19.8 14.2-5.6 5.9-10.1 12.8-13.4 20.7s-4.9 16.1-4.9 24.6c0 8.7 1.6 16.9 4.9 24.8 3.3 7.8 7.8 14.7 13.4 20.7 5.6 6 12.2 10.8 19.8 14.3 7.5 3.6 15.6 5.3 24.3 5.3 8.7 0 16.8-1.8 24.3-5.3 7.5-3.6 14.1-8.3 19.8-14.3 5.6-6 10.1-12.9 13.4-20.7 3.3-7.8 4.9-16.1 4.9-24.8 0-8.5-1.6-16.7-4.9-24.6-3.3-7.9-7.8-14.8-13.4-20.7-5.6-5.9-12.2-10.6-19.8-14.2-7.5-3.5-15.6-5.3-24.3-5.3zM1872.8 465.8l-80-91.9v91.9h-36.5V269.9h36.5v96.9l75.8-96.7h44.8l-78.4 98.5 86 97.1h-48.2z"/><path fill="rgba(255, 255, 255, 0.7)" d="M323.1 2.6l-90.2 90.3h140.5v140.5l90.2-90.3V2.6M232.7 92.9L142.5 2.6H2v140.5l90.2 90.3V92.9zM232.9 374l90.2 90.3h140.5V323.8l-90.2-90.3V374zM142.5 464.3l90.2-90.3H92.2V233.5L2 323.8v140.5M232.8 93l.1-.1h-.2zM232.8 374h-.1.2zM373.3 233.5h.1v-.1zM92.2 233.4v.1h.1z"/><path fill="rgba(255, 255, 255, 0.7)" d="M341.4 124.9V342H124.3V124.9h50.8l57.7 57.7 57.8-57.7z"/></svg>