<svg xmlns="http://www.w3.org/2000/svg" class="o-aQ o-aS o-aV o-ov bgqw_0" viewBox="0 0 100 56" width="85.3px" height="48px" tabindex="-1" focusable="false" aria-hidden="true" role="img" style="opacity: 0.7;"><path d="M77.15,32.89l-3.26-3.26c-.97-.97-.97-2.53,0-3.5l3.24-3.24c1.19-1.19,1.19-3.12,0-4.32-1.19-1.19-3.12-1.19-4.32,0l-3.24,3.24c-.97.97-2.53.97-3.5,0l-3.26-3.26c-1.19-1.19-3.12-1.19-4.32,0-1.19,1.19-1.19,3.12,0,4.32l3.26,3.26c.97.97.97,2.53,0,3.5l-3.24,3.24c-1.19,1.19-1.19,3.12,0,4.32,1.19,1.19,3.12,1.19,4.32,0l3.24-3.24c.97-.97,2.53-.97,3.5,0l3.26,3.26c1.19,1.19,3.12,1.19,4.32,0,1.19-1.19,1.19-3.12,0-4.32ZM33.75,16.09c-6.5,0-11.8,5.29-11.8,11.8s5.29,11.8,11.8,11.8,11.8-5.29,11.8-11.8c0-6.5-5.29-11.8-11.8-11.8ZM33.75,33.31c-3,0-5.43-2.43-5.43-5.43s2.43-5.43,5.43-5.43,5.43,2.43,5.43,5.43-2.43,5.43-5.43,5.43ZM51.36,13.69c-1.79,0-3.24,1.45-3.24,3.24v21.92c0,1.79,1.45,3.24,3.24,3.24s3.24-1.45,3.24-3.24v-21.92c0-1.79-1.45-3.24-3.24-3.24ZM61.24,40.13h.3v2.18h-.3v-2.18ZM63.47,40.13h.32c.38.55.76,1.09,1.15,1.67h0v-1.67h.3v2.18h-.32c-.38-.54-.76-1.08-1.15-1.65h0v1.65h-.3v-2.18ZM67.17,40.13h.8c.73,0,1.04.49,1.04,1.08,0,.65-.38,1.11-1.01,1.11h-.83v-2.18ZM67.98,42.03c.4,0,.71-.26.71-.81,0-.6-.37-.82-.79-.82h-.43v1.63h.51ZM70.81,40.13h.3v2.18h-.3v-2.18ZM73.66,40.13h.34l.86,2.18h-.32l-.27-.67h-.89c-.09.22-.17.45-.26.67h-.32l.86-2.18ZM74.16,41.35c-.11-.27-.23-.58-.33-.87h0l-.34.87h.68Z" fill="#fff"/></svg>